<svg width="466" height="109" viewBox="0 0 466 109" fill="none" xmlns="http://www.w3.org/2000/svg">
<g clip-path="url(#clip0_874_308)">
<path d="M172.79 48.11C163.5 45.87 155.93 44.23 155.93 36.43C155.93 30.39 160.58 27.18 169.66 27.18C180.16 27.18 185.11 31.76 186.32 40.14H197.83C196.73 26.12 186.03 18.03 169.58 18.03C154.02 18.03 144.34 24.94 144.34 37.03C144.34 50.26 156.76 53.77 168.07 56.69C181.18 59.91 188.25 61.17 188.25 70.03C188.25 76.36 184.72 81.23 173.11 81.23C159.59 81.23 153.84 74.9 153.03 65.55H141.52C142.33 81.23 155.33 90.36 173.4 90.36C191.47 90.36 199.85 81.42 199.85 69.43C199.85 54.72 186.72 51.51 172.8 48.11H172.79Z" fill="#1D1D1D"/>
<path d="M217.92 75.28V47.24H227.81V39.36H217.92V23.39H208.03V39.38H200.56V47.26H208.03V75.01L208.01 74.99C208.01 86.48 213.15 89.59 221.64 89.59C223.76 89.59 225.37 89.49 227.9 89.01V81.31C226.2 81.6 225.39 81.7 223.67 81.7C219.44 81.7 217.92 80.54 217.92 75.27V75.28Z" fill="#1D1D1D"/>
<path d="M274.63 77.73V54.93C274.63 42.09 266.15 37.8 255.55 37.8C239.81 37.8 233.33 45.31 232.84 54.85H242.94C243.46 48.21 246.18 45.5 255.16 45.5C262.73 45.5 264.95 48.51 264.95 52.12C264.95 56.99 259.99 57.97 251.92 59.42C239.1 61.76 230.43 65.08 230.43 76.18H230.41C230.41 84.64 236.99 90.39 247.27 90.39C255.65 90.39 261.5 87.17 264.84 82.01H265.05C265.65 87.67 268.29 89.52 273.22 89.52C274.82 89.52 276.54 89.33 278.26 88.94V83.09C277.66 83.19 277.37 83.19 277.06 83.19C275.13 83.19 274.63 81.34 274.63 77.73ZM264.92 69.66C264.92 78.33 258.37 82.71 249.49 82.71H249.47C243.33 82.71 240.7 80.18 240.7 75.51C240.7 70.35 244.54 67.9 253.62 66.16C258.87 65.08 263.31 64 264.92 62.55V69.66Z" fill="#1D1D1D"/>
<path d="M305.7 45.76C315.1 45.76 318.13 52.19 318.62 57.36H328.83C327.63 46.16 318.85 37.88 305.62 37.88C290.37 37.88 280.38 48.6 280.38 64.18L280.4 64.16C280.4 79.76 290.38 90.46 305.73 90.46C318.94 90.46 328.13 81.98 328.84 70.59H318.63C318.13 76.25 315.19 82.48 305.71 82.48C294.72 82.48 290.67 73.5 290.67 64.16C290.67 54.82 294.71 45.76 305.71 45.76H305.7Z" fill="#1D1D1D"/>
<path d="M377.47 39.37H366.06L343.56 60.41V19.4H333.66V89.05H343.56V70.55L351.02 63.64L367.89 89.05H379.59L357.68 57.59L377.47 39.37Z" fill="#1D1D1D"/>
<path d="M410.39 19.4L383.55 89.03H395.25L401.2 72.27H431.38L437.33 89.03H449.44L422.39 19.4H410.38H410.39ZM404.54 63.23L416.24 29.34H416.45L428.25 63.23H404.54Z" fill="#1D1D1D"/>
<path d="M465.83 19.4H454.73V89.03H465.83V19.4Z" fill="#1D1D1D"/>
<path d="M102.92 57.26L81.48 44.39C80.98 44.09 80.68 43.55 80.68 42.97V17.91C80.68 16.17 79.77 14.55 78.27 13.66L57.56 1.24C56.2 0.43 54.65 0 53.07 0C51.49 0 49.93 0.43 48.58 1.24L27.87 13.67C26.38 14.57 25.46 16.18 25.46 17.92V43C25.46 43.58 25.15 44.12 24.66 44.42L3.21 57.26C1.22 58.45 0 60.61 0 62.93V87.16C0 90.49 1.66 93.57 4.34 95.19L24.18 107.25C26.29 108.53 28.93 108.53 31.04 107.25L52.31 94.43C52.83 94.12 53.48 94.13 54 94.44L75.94 107.77C77.52 108.73 79.51 108.73 81.09 107.77L101.79 95.19C104.47 93.56 106.13 90.49 106.13 87.16V62.93C106.13 60.61 104.91 58.46 102.92 57.26ZM50.76 87.16C50.76 88.94 49.91 90.56 48.57 91.38L31.88 101.52C30.51 102.35 28.87 101.19 28.87 99.39V79.63C28.87 77.85 29.72 76.23 31.06 75.41L47.75 65.27C49.12 64.44 50.76 65.6 50.76 67.4V87.16ZM76.22 43.09C76.22 44.87 75.37 46.49 74.03 47.31L57.34 57.45C55.97 58.28 54.33 57.12 54.33 55.32V35.56C54.33 33.78 55.18 32.16 56.52 31.34L73.21 21.2C74.58 20.37 76.22 21.53 76.22 23.33V43.09ZM101.67 87.16C101.67 88.94 100.82 90.56 99.48 91.38L82.79 101.52C81.42 102.35 79.78 101.19 79.78 99.39V79.63C79.78 77.85 80.63 76.23 81.97 75.41L98.66 65.27C100.03 64.44 101.67 65.6 101.67 67.4V87.16Z" fill="#1D1D1D"/>
</g>
<defs>
<clipPath id="clip0_874_308">
<rect width="465.83" height="108.49" fill="white"/>
</clipPath>
</defs>
</svg>